<?xml version="1.0" encoding="UTF-8" standalone="no"?>
<!-- Created with Inkscape (http://www.inkscape.org/) -->

<svg
   version="1.1"
   id="svg2"
   width="55.985287"
   height="45.741718"
   viewBox="0 0 55.985287 45.741719"
   sodipodi:docname="pot.svg"
   inkscape:version="1.2.2 (b0a8486541, 2022-12-01)"
   xmlns:inkscape="http://www.inkscape.org/namespaces/inkscape"
   xmlns:sodipodi="http://sodipodi.sourceforge.net/DTD/sodipodi-0.dtd"
   xmlns="http://www.w3.org/2000/svg"
   xmlns:svg="http://www.w3.org/2000/svg">
  <defs
     id="defs6" />
  <sodipodi:namedview
     id="namedview4"
     pagecolor="#ffffff"
     bordercolor="#000000"
     borderopacity="0.25"
     inkscape:showpageshadow="2"
     inkscape:pageopacity="0.0"
     inkscape:pagecheckerboard="0"
     inkscape:deskcolor="#d1d1d1"
     showgrid="false"
     inkscape:zoom="8.6186303"
     inkscape:cx="3.712887"
     inkscape:cy="19.84074"
     inkscape:window-width="1471"
     inkscape:window-height="748"
     inkscape:window-x="2126"
     inkscape:window-y="132"
     inkscape:window-maximized="0"
     inkscape:current-layer="g8" />
  <g
     inkscape:groupmode="layer"
     inkscape:label="Image"
     id="g8"
     transform="translate(-1.4016424,-2.0655887)">
    <g
       id="g773">
      <path
         style="fill:#ff9955"
         d="M 3.151615,12.257592 5.12233,38.25422 c 0,0 0.806245,5.486544 5.8113,7.605962 5.005055,2.119418 17.628083,1.842904 20.2378,1.93617 2.609717,0.09327 15.030603,-0.389164 17.489451,-2.211226 2.458847,-1.822061 4.200679,-3.864082 4.919705,-8.534998 0.719026,-4.670916 1.648976,-24.640622 1.648976,-24.640622 0,0 -9.975438,3.144628 -26.87509,2.455908 C 11.45482,14.176695 4.62924,13.550408 3.879507,12.947136 3.129774,12.343865 3.151615,12.257592 3.151615,12.257592 Z"
         id="path611" />
      <path
         style="fill:#d45500"
         d="m 24.825031,2.0924223 c 0,0 -20.256156,1.3549337 -21.267206,2.0551827 C 2.546775,4.8478539 1.1179,5.0624245 1.450857,5.9170171 1.783813,6.7716096 4.946758,7.6625954 5.58882,7.8320268 6.230882,8.0014581 19.029651,9.797862 23.712117,9.726124 28.394583,9.654384 43.613505,9.677884 47.812117,8.83397 52.010728,7.9900565 56.930915,7.3193633 57.058443,6.2364792 57.185972,5.1535952 55.686931,4.5570056 53.286948,3.8557405 50.886964,3.1544753 37.945313,2.1710689 33.754747,2.0993624 29.56418,2.0276564 24.825031,2.0924224 24.825031,2.0924223 Z"
         id="path282" />
      <path
         style="fill:#2b1100"
         d="m 24.356388,6.1212447 c 0,0 -8.54543,-0.02181 -12.445927,0.377586 -3.900497,0.399394 -8.399857,0.720892 -6.644003,1.359328 1.755854,0.6384363 7.5718,1.3303183 7.5718,1.3303183 0,0 20.308448,0.954895 29.566927,0.06536 C 51.663664,8.364304 53.329042,8.438375 52.760517,7.7208287 52.191993,7.0032827 51.494014,7.0375057 44.755596,6.5516037 38.017179,6.0657027 24.356388,6.1212447 24.356388,6.1212447 Z"
         id="path351" />
      <path
         style="fill:#ff9955;stroke-width:0.999815"
         d="m 1.5467341,5.7943289 -0.0041,6.0264481 c 0,0 6.654354,2.695027 16.4787839,3.258003 9.82443,0.562976 26.377206,0.48479 32.875677,-1.106094 6.498472,-1.590885 6.489835,-2.519949 6.489835,-2.519949 L 57.078535,5.645463 c 0,0 -2.06703,3.290204 -14.483395,3.518329 C 30.178773,9.391917 18.349639,9.624433 14.821612,9.197482 11.293585,8.770535 0.94164416,7.0158527 1.5466852,5.7943289 Z"
         id="path416" />
      <path
         style="fill:#c87137;stroke-width:1.0031"
         d="m 3.18742,12.261964 0.135687,2.464987 c 0,0 11.132089,3.743368 17.001318,3.980033 5.86923,0.236665 18.037636,1.464562 19.823829,1.535007 1.786192,0.07045 14.622721,-1.096527 14.622721,-1.096527 l 0.605888,-6.763278 c 0,0 -15.097427,3.093227 -26.007261,2.545545 C 18.459767,14.380048 2.996326,13.132939 3.18742,12.261964 Z"
         id="path481" />
      <path
         style="fill:#800000;stroke-width:1.00937"
         d="m 3.453333,16.59407 0.07084,3.647085 c 0,0 11.985853,3.009867 23.858852,2.692077 11.872999,-0.31779 13.817286,-0.187725 13.817286,-0.187725 0,0 13.460572,-1.211517 13.813141,-1.85835 0.352569,-0.646832 0.179842,-4.214243 0.179842,-4.214243 0,0 -17.770588,4.038881 -19.343273,4.038881 -1.572685,0 -12.096994,-0.03457 -12.096994,-0.03457 0,0 -22.005245,-4.22642 -20.2997,-4.083157 z"
         id="path676" />
      <path
         style="fill:#800000"
         d="m 18.583386,12.228312 -2.772541,4.688545 c 0,0 11.209026,4.099846 13.477288,6.230389 2.268263,2.130544 7.806462,16.20093 7.89912,16.704869 0.09266,0.503938 3.370327,-3.373083 3.370327,-3.373083 0,0 -5.994378,-12.446416 -9.641773,-15.098057 -3.647395,-2.651641 -12.332421,-9.152663 -12.332421,-9.152663 z"
         id="path741" />
      <path
         style="fill:#800000"
         d="m 39.359882,12.100198 c 0,0 -10.38128,8.545544 -12.536262,10.807879 -2.154983,2.262335 -4.436361,5.154126 -5.622897,8.02111 -1.186537,2.866984 -2.530118,8.036102 -2.150819,8.533823 0.3793,0.497721 3.950438,3.229584 3.950438,3.229584 0,0 -0.364003,-5.778639 1.319815,-9.681424 1.683819,-3.902784 4.324072,-8.956923 5.017378,-9.146346 0.693305,-0.189423 1.978845,-1.894458 5.389991,-3.637183 3.411147,-1.742724 7.583811,-3.54125 7.583811,-3.54125 z"
         id="path745" />
    </g>
  </g>
</svg>
